<?xml version="1.0" encoding="UTF-8" standalone="no"?>
<!-- Created with Inkscape (http://www.inkscape.org/) -->
<svg
   xmlns:svg="http://www.w3.org/2000/svg"
   xmlns="http://www.w3.org/2000/svg"
   version="1.0"
   width="220"
   height="400"
   id="svg2">
  <defs
     id="defs5" />
  <path
     d="M 149,102 C 136.33072,207.3464 184.91388,238.97814 165,250 C 148.99349,258.85922 130.18553,238.04638 132,108"
     style="fill:black;fill-opacity:1;fill-rule:evenodd;stroke:none;stroke-width:1px;stroke-linecap:butt;stroke-linejoin:miter;stroke-opacity:1"
     id="path1891" />
  <path
     d="M 108,106 C 99.675178,115.73931 91.87359,119.29605 83.843039,124.06686 C -16.593017,183.73417 29.203938,305.46206 108,321 C 86.588999,344.02967 54.161582,384 90,384 C 104.42866,384 107.77358,381.46245 112.00422,376.49364 C 115.62464,372.24152 126.96273,360 93,360 C 110.17083,341.00046 155.06756,309.74825 107,297 C 118.45398,284.06952 138.04416,288.31545 155,287 C 152.65677,314.88985 116.44238,347 155,347 C 173.32108,347 178.13324,336.74361 176.79451,329.59375 C 174.27337,316.12885 167.48826,326.375 155.5,325.5 C 171.59134,287.40223 195.89064,263 156,263 C 90.248099,263 54.16023,215.09556 72,185 C 83.625954,165.3871 92.346319,206.80772 144,195 L 141,173 C 100.08977,185.41023 89.142258,155.60774 92.25,150.75 C 93.578607,148.67324 102.95451,151.5885 105.57458,153.3018 C 107.43922,154.52112 111.4375,158.5625 113,159.25 C 115.02743,160.14207 120.91392,159.40515 124.14557,160.5128 C 126.69961,161.3882 130.53609,167.57774 136,169.25 L 137,138.5 C 131.15625,140.5625 129.21877,144.82813 127.05469,144.82813 C 124.67537,144.82813 123.28985,142.13086 120.33301,142.13086 C 117.00492,142.13086 113.8125,137.75 113.75,134.75 C 113.5,122.75 137,129.75 140.75,128.5 C 144.5,127.25 160.5,112 159.5,99.5 C 158.5,87 154.75,86.5 154.75,83.25 C 154.75,80 158.75,82 158.75,72.5 C 158.75,63 155.5,64.5 155.5,64.5 C 160.44223,29.731076 96.969766,7.992591 88.5,31.5 C 85.061066,41.044588 136.95157,31.507837 140.5,69.25 C 110.08829,32.75 79,45.238386 79,53.5 C 79,67.801971 100.60031,47.199063 123.25,73.75 C 90.940278,55.837037 67.25,68.432378 67.25,76.75 C 67.25,85.759882 89,73.814712 98,83.75 C 78.369175,83.311529 61.25,96.901449 61.25,103.75 C 61.25,118.89842 96.514853,90.51114 108,106 z "
     style="fill:black;fill-opacity:1;fill-rule:evenodd;stroke:none;stroke-width:1px;stroke-linecap:butt;stroke-linejoin:miter;stroke-opacity:1"
     id="path2779" />
</svg>
